<svg xmlns="http://www.w3.org/2000/svg" xmlns:xlink="http://www.w3.org/1999/xlink" width="500" zoomAndPan="magnify" viewBox="0 0 375 374.999991" height="500" preserveAspectRatio="xMidYMid meet" version="1.0"><defs><g/><clipPath id="432393010c"><path d="M 55 83 L 161 83 L 161 266 L 55 266 Z M 55 83 " clip-rule="nonzero"/></clipPath><clipPath id="3d92f5ad31"><path d="M 146.421875 71.5 L 249.5 170.453125 L 145.542969 278.742188 L 42.46875 179.789062 Z M 146.421875 71.5 " clip-rule="nonzero"/></clipPath><clipPath id="e05fa4c5b3"><path d="M 126.167969 92.601562 L 63.21875 158.171875 C 57.847656 163.769531 54.917969 171.269531 55.074219 179.023438 C 55.234375 186.78125 58.464844 194.15625 64.0625 199.527344 L 124.785156 257.820312 C 130.378906 263.195312 137.882812 266.125 145.636719 265.964844 C 153.394531 265.808594 160.769531 262.574219 166.140625 256.976562 L 229.089844 191.40625 C 234.460938 185.808594 237.390625 178.308594 237.234375 170.550781 C 237.074219 162.796875 233.84375 155.421875 228.246094 150.050781 L 167.523438 91.753906 C 161.929688 86.382812 154.425781 83.453125 146.671875 83.613281 C 138.914062 83.769531 131.539062 87.003906 126.167969 92.601562 Z M 126.167969 92.601562 " clip-rule="nonzero"/></clipPath><clipPath id="6a63641684"><path d="M 146.421875 71.5 L 249.5 170.453125 L 146.097656 278.160156 L 43.023438 179.207031 Z M 146.421875 71.5 " clip-rule="nonzero"/></clipPath><clipPath id="88ea335891"><path d="M 146.421875 71.5 L 249.5 170.453125 L 146.097656 278.160156 L 43.023438 179.207031 Z M 146.421875 71.5 " clip-rule="nonzero"/></clipPath><clipPath id="d34171b900"><path d="M 215 84 L 321 84 L 321 267 L 215 267 Z M 215 84 " clip-rule="nonzero"/></clipPath><clipPath id="f85aba14d9"><path d="M 229.382812 278.070312 L 126.878906 179.679688 L 229.714844 72.542969 L 332.21875 170.933594 Z M 229.382812 278.070312 " clip-rule="nonzero"/></clipPath><clipPath id="e161eb4ad6"><path d="M 248.597656 258.050781 L 312.816406 191.148438 C 323.429688 180.089844 323.070312 162.523438 312.011719 151.910156 L 249.921875 92.3125 C 238.867188 81.699219 221.300781 82.058594 210.6875 93.117188 L 146.46875 160.019531 C 135.855469 171.074219 136.214844 188.640625 147.269531 199.253906 L 209.359375 258.851562 C 220.417969 269.464844 237.984375 269.105469 248.597656 258.050781 Z M 248.597656 258.050781 " clip-rule="nonzero"/></clipPath><clipPath id="8da7dfd7ba"><path d="M 229.382812 278.070312 L 127.457031 180.234375 L 230.296875 73.097656 L 332.21875 170.933594 Z M 229.382812 278.070312 " clip-rule="nonzero"/></clipPath><clipPath id="1006ad0c64"><path d="M 229.382812 278.070312 L 127.457031 180.234375 L 230.296875 73.097656 L 332.21875 170.933594 Z M 229.382812 278.070312 " clip-rule="nonzero"/></clipPath><clipPath id="fd90b13c9a"><path d="M 148 125 L 219 125 L 219 214 L 148 214 Z M 148 125 " clip-rule="nonzero"/></clipPath><clipPath id="7d8586bba9"><path d="M 131.253906 135.714844 L 217.753906 117.976562 L 235.492188 204.476562 L 148.992188 222.214844 Z M 131.253906 135.714844 " clip-rule="nonzero"/></clipPath><clipPath id="b35f20fe0f"><path d="M 140.089844 178.808594 C 142.433594 190.238281 149.222656 200.269531 158.960938 206.691406 C 168.703125 213.117188 180.59375 215.410156 192.023438 213.066406 C 203.453125 210.722656 213.480469 203.933594 219.90625 194.195312 C 226.332031 184.453125 228.621094 172.5625 226.277344 161.132812 C 223.933594 149.703125 217.144531 139.675781 207.40625 133.25 C 197.667969 126.824219 185.777344 124.535156 174.347656 126.878906 C 162.917969 129.222656 152.886719 136.011719 146.464844 145.75 C 140.039062 155.488281 137.746094 167.378906 140.089844 178.808594 Z M 140.089844 178.808594 " clip-rule="nonzero"/></clipPath><clipPath id="9c774d9440"><path d="M 131.253906 135.714844 L 217.753906 117.976562 L 235.492188 204.476562 L 148.992188 222.214844 Z M 131.253906 135.714844 " clip-rule="nonzero"/></clipPath><clipPath id="96a1092a48"><path d="M 131.253906 135.714844 L 217.753906 117.976562 L 235.492188 204.476562 L 148.992188 222.214844 Z M 131.253906 135.714844 " clip-rule="nonzero"/></clipPath><clipPath id="4652105609"><path d="M 131.253906 135.714844 L 217.753906 117.976562 L 235.492188 204.476562 L 148.992188 222.214844 Z M 131.253906 135.714844 " clip-rule="nonzero"/></clipPath></defs><g clip-path="url(#432393010c)"><g clip-path="url(#3d92f5ad31)"><g clip-path="url(#e05fa4c5b3)"><g clip-path="url(#6a63641684)"><g clip-path="url(#88ea335891)"><path fill="#fd7e14" d="M 157.90625 265.417969 L 145.683594 278.148438 L 42.832031 179.40625 L 146.40625 71.515625 L 160.695312 85.234375 L 69.339844 180.394531 Z M 157.90625 265.417969 " fill-opacity="1" fill-rule="nonzero"/></g></g></g></g></g><g clip-path="url(#d34171b900)"><g clip-path="url(#f85aba14d9)"><g clip-path="url(#e161eb4ad6)"><g clip-path="url(#8da7dfd7ba)"><g clip-path="url(#1006ad0c64)"><path fill="#004aad" d="M 217.976562 85.667969 L 230.101562 73.039062 L 332.15625 171 L 229.398438 278.050781 L 215.222656 264.441406 L 305.855469 170.023438 Z M 217.976562 85.667969 " fill-opacity="1" fill-rule="nonzero"/></g></g></g></g></g><g clip-path="url(#fd90b13c9a)"><g clip-path="url(#7d8586bba9)"><g clip-path="url(#b35f20fe0f)"><g clip-path="url(#9c774d9440)"><g clip-path="url(#96a1092a48)"><g clip-path="url(#4652105609)"><path fill="#000000" d="M 150.476562 219.964844 C 150.210938 219.789062 149.964844 219.589844 149.738281 219.367188 C 149.511719 219.140625 149.308594 218.898438 149.132812 218.632812 C 148.953125 218.371094 148.800781 218.09375 148.679688 217.796875 C 148.554688 217.503906 148.460938 217.203125 148.398438 216.890625 C 148.332031 216.578125 148.300781 216.261719 148.296875 215.945312 C 148.296875 215.625 148.324219 215.308594 148.386719 214.996094 C 148.445312 214.683594 148.535156 214.378906 148.65625 214.085938 C 148.777344 213.789062 148.925781 213.511719 149.097656 213.246094 L 209.546875 121.605469 C 209.71875 121.332031 209.917969 121.082031 210.140625 120.847656 C 210.363281 120.617188 210.605469 120.40625 210.871094 120.222656 C 211.136719 120.039062 211.417969 119.882812 211.710938 119.753906 C 212.007812 119.625 212.3125 119.527344 212.628906 119.460938 C 212.941406 119.394531 213.261719 119.359375 213.582031 119.355469 C 213.90625 119.351562 214.222656 119.378906 214.539062 119.4375 C 214.855469 119.496094 215.164062 119.585938 215.464844 119.707031 C 215.761719 119.828125 216.046875 119.976562 216.316406 120.15625 C 216.582031 120.332031 216.832031 120.535156 217.0625 120.761719 C 217.289062 120.988281 217.492188 121.234375 217.671875 121.503906 C 217.851562 121.769531 218.003906 122.054688 218.125 122.351562 C 218.25 122.648438 218.34375 122.957031 218.402344 123.273438 C 218.464844 123.585938 218.496094 123.90625 218.496094 124.230469 C 218.492188 124.550781 218.460938 124.871094 218.394531 125.183594 C 218.328125 125.5 218.234375 125.808594 218.109375 126.101562 C 217.980469 126.398438 217.828125 126.679688 217.644531 126.945312 L 157.199219 218.585938 C 157.023438 218.851562 156.824219 219.097656 156.597656 219.324219 C 156.375 219.550781 156.132812 219.753906 155.867188 219.933594 C 155.605469 220.109375 155.324219 220.261719 155.03125 220.386719 C 154.738281 220.507812 154.433594 220.601562 154.125 220.667969 C 153.8125 220.730469 153.496094 220.765625 153.175781 220.765625 C 152.859375 220.769531 152.542969 220.738281 152.230469 220.679688 C 151.917969 220.617188 151.613281 220.527344 151.320312 220.40625 C 151.023438 220.289062 150.742188 220.140625 150.476562 219.964844 Z M 150.476562 219.964844 " fill-opacity="1" fill-rule="nonzero"/></g></g></g></g></g></g><g fill="#000000" fill-opacity="1"><g transform="translate(72.482187, 297.612882)"><g><path d="M 10.671875 -18.296875 C 11.804688 -18.296875 12.726562 -18.132812 13.4375 -17.8125 C 14.144531 -17.488281 14.867188 -17.007812 15.609375 -16.375 C 15.828125 -16.195312 16.015625 -16.109375 16.171875 -16.109375 C 16.566406 -16.109375 16.820312 -16.695312 16.9375 -17.875 L 17.609375 -17.875 C 17.535156 -16.695312 17.5 -14.640625 17.5 -11.703125 L 16.828125 -11.703125 C 16.628906 -12.765625 16.429688 -13.535156 16.234375 -14.015625 C 16.035156 -14.492188 15.738281 -14.976562 15.34375 -15.46875 C 14.800781 -16.113281 14.179688 -16.617188 13.484375 -16.984375 C 12.785156 -17.347656 12.066406 -17.53125 11.328125 -17.53125 C 10.242188 -17.53125 9.300781 -17.179688 8.5 -16.484375 C 7.695312 -15.785156 7.070312 -14.789062 6.625 -13.5 C 6.1875 -12.207031 5.96875 -10.664062 5.96875 -8.875 C 5.96875 -7.070312 6.207031 -5.53125 6.6875 -4.25 C 7.164062 -2.96875 7.828125 -2 8.671875 -1.34375 C 9.515625 -0.6875 10.46875 -0.359375 11.53125 -0.359375 C 12.289062 -0.359375 13.035156 -0.535156 13.765625 -0.890625 C 14.503906 -1.253906 15.140625 -1.757812 15.671875 -2.40625 C 16.066406 -2.894531 16.351562 -3.425781 16.53125 -4 C 16.707031 -4.570312 16.875 -5.394531 17.03125 -6.46875 L 17.703125 -6.46875 C 17.703125 -3.394531 17.738281 -1.238281 17.8125 0 L 17.140625 0 C 17.085938 -0.601562 17 -1.046875 16.875 -1.328125 C 16.757812 -1.617188 16.601562 -1.765625 16.40625 -1.765625 C 16.25 -1.765625 16.054688 -1.675781 15.828125 -1.5 C 15.097656 -0.894531 14.335938 -0.425781 13.546875 -0.09375 C 12.765625 0.238281 11.828125 0.40625 10.734375 0.40625 C 8.867188 0.40625 7.21875 0.046875 5.78125 -0.671875 C 4.351562 -1.398438 3.242188 -2.445312 2.453125 -3.8125 C 1.660156 -5.1875 1.265625 -6.835938 1.265625 -8.765625 C 1.265625 -10.628906 1.675781 -12.285156 2.5 -13.734375 C 3.320312 -15.179688 4.441406 -16.300781 5.859375 -17.09375 C 7.285156 -17.894531 8.890625 -18.296875 10.671875 -18.296875 Z M 10.671875 -18.296875 "/></g></g></g><g fill="#000000" fill-opacity="1"><g transform="translate(91.797966, 297.612882)"><g><path d="M 11.171875 -18.296875 C 13.148438 -18.296875 14.882812 -17.9375 16.375 -17.21875 C 17.863281 -16.5 19.019531 -15.445312 19.84375 -14.0625 C 20.664062 -12.6875 21.078125 -11.035156 21.078125 -9.109375 C 21.078125 -7.234375 20.65625 -5.570312 19.8125 -4.125 C 18.976562 -2.6875 17.804688 -1.570312 16.296875 -0.78125 C 14.785156 0.0078125 13.066406 0.40625 11.140625 0.40625 C 9.160156 0.40625 7.425781 0.0507812 5.9375 -0.65625 C 4.445312 -1.375 3.289062 -2.421875 2.46875 -3.796875 C 1.644531 -5.179688 1.234375 -6.835938 1.234375 -8.765625 C 1.234375 -10.648438 1.65625 -12.3125 2.5 -13.75 C 3.34375 -15.1875 4.519531 -16.300781 6.03125 -17.09375 C 7.539062 -17.894531 9.253906 -18.296875 11.171875 -18.296875 Z M 11.0625 -17.765625 C 10.039062 -17.765625 9.140625 -17.382812 8.359375 -16.625 C 7.585938 -15.875 6.988281 -14.828125 6.5625 -13.484375 C 6.144531 -12.140625 5.9375 -10.601562 5.9375 -8.875 C 5.9375 -7.132812 6.171875 -5.597656 6.640625 -4.265625 C 7.117188 -2.929688 7.765625 -1.90625 8.578125 -1.1875 C 9.390625 -0.476562 10.285156 -0.125 11.265625 -0.125 C 12.285156 -0.125 13.179688 -0.5 13.953125 -1.25 C 14.722656 -2 15.316406 -3.046875 15.734375 -4.390625 C 16.160156 -5.734375 16.375 -7.269531 16.375 -9 C 16.375 -10.738281 16.140625 -12.273438 15.671875 -13.609375 C 15.203125 -14.941406 14.5625 -15.96875 13.75 -16.6875 C 12.9375 -17.40625 12.039062 -17.765625 11.0625 -17.765625 Z M 11.0625 -17.765625 "/></g></g></g><g fill="#000000" fill-opacity="1"><g transform="translate(114.112548, 297.612882)"><g><path d="M 9.90625 -17.875 C 13.34375 -17.875 15.910156 -17.132812 17.609375 -15.65625 C 19.316406 -14.175781 20.171875 -12.015625 20.171875 -9.171875 C 20.171875 -7.328125 19.757812 -5.710938 18.9375 -4.328125 C 18.113281 -2.953125 16.90625 -1.882812 15.3125 -1.125 C 13.726562 -0.375 11.835938 0 9.640625 0 L 7.765625 -0.03125 C 6.503906 -0.0703125 5.582031 -0.09375 5 -0.09375 C 3.25 -0.09375 1.914062 -0.0625 1 0 L 1 -0.59375 C 1.664062 -0.625 2.144531 -0.695312 2.4375 -0.8125 C 2.726562 -0.9375 2.925781 -1.164062 3.03125 -1.5 C 3.144531 -1.832031 3.203125 -2.367188 3.203125 -3.109375 L 3.203125 -14.765625 C 3.203125 -15.503906 3.144531 -16.039062 3.03125 -16.375 C 2.925781 -16.707031 2.726562 -16.929688 2.4375 -17.046875 C 2.144531 -17.171875 1.664062 -17.253906 1 -17.296875 L 1 -17.875 C 1.75 -17.820312 2.796875 -17.796875 4.140625 -17.796875 L 6.96875 -17.8125 C 8.414062 -17.851562 9.394531 -17.875 9.90625 -17.875 Z M 9.53125 -17.34375 C 9.019531 -17.34375 8.632812 -17.273438 8.375 -17.140625 C 8.125 -17.003906 7.945312 -16.757812 7.84375 -16.40625 C 7.75 -16.050781 7.703125 -15.523438 7.703125 -14.828125 L 7.703125 -3.0625 C 7.703125 -2.351562 7.75 -1.820312 7.84375 -1.46875 C 7.945312 -1.113281 8.125 -0.867188 8.375 -0.734375 C 8.632812 -0.597656 9.03125 -0.53125 9.5625 -0.53125 C 11.070312 -0.53125 12.253906 -0.847656 13.109375 -1.484375 C 13.972656 -2.117188 14.582031 -3.050781 14.9375 -4.28125 C 15.289062 -5.519531 15.46875 -7.113281 15.46875 -9.0625 C 15.46875 -11.914062 15.015625 -14.007812 14.109375 -15.34375 C 13.210938 -16.675781 11.6875 -17.34375 9.53125 -17.34375 Z M 9.53125 -17.34375 "/></g></g></g><g fill="#000000" fill-opacity="1"><g transform="translate(135.574535, 297.612882)"><g><path d="M 16.34375 -3.828125 C 16.34375 -2.703125 16.414062 -1.425781 16.5625 0 C 15.28125 -0.0625 13.128906 -0.09375 10.109375 -0.09375 C 6.078125 -0.09375 3.039062 -0.0625 1 0 L 1 -0.59375 C 1.664062 -0.625 2.144531 -0.695312 2.4375 -0.8125 C 2.726562 -0.9375 2.925781 -1.164062 3.03125 -1.5 C 3.144531 -1.832031 3.203125 -2.367188 3.203125 -3.109375 L 3.203125 -14.765625 C 3.203125 -15.503906 3.144531 -16.039062 3.03125 -16.375 C 2.925781 -16.707031 2.722656 -16.929688 2.421875 -17.046875 C 2.117188 -17.171875 1.644531 -17.253906 1 -17.296875 L 1 -17.875 C 3.039062 -17.820312 6.078125 -17.796875 10.109375 -17.796875 C 12.859375 -17.796875 14.8125 -17.820312 15.96875 -17.875 C 15.832031 -16.5625 15.765625 -15.382812 15.765625 -14.34375 C 15.765625 -13.582031 15.789062 -12.976562 15.84375 -12.53125 L 15.171875 -12.53125 C 14.878906 -14.21875 14.367188 -15.414062 13.640625 -16.125 C 12.921875 -16.84375 11.921875 -17.203125 10.640625 -17.203125 L 9.5625 -17.203125 C 9.050781 -17.203125 8.664062 -17.15625 8.40625 -17.0625 C 8.15625 -16.976562 7.972656 -16.800781 7.859375 -16.53125 C 7.753906 -16.269531 7.703125 -15.859375 7.703125 -15.296875 L 7.703125 -9.296875 L 9.09375 -9.296875 C 9.988281 -9.296875 10.664062 -9.613281 11.125 -10.25 C 11.59375 -10.882812 11.90625 -11.625 12.0625 -12.46875 L 12.734375 -12.46875 C 12.671875 -11.800781 12.640625 -11.035156 12.640625 -10.171875 L 12.640625 -9 C 12.640625 -8.113281 12.703125 -6.957031 12.828125 -5.53125 L 12.140625 -5.53125 C 12.003906 -6.445312 11.695312 -7.203125 11.21875 -7.796875 C 10.738281 -8.398438 10.03125 -8.703125 9.09375 -8.703125 L 7.703125 -8.703125 L 7.703125 -2.59375 C 7.703125 -2.019531 7.753906 -1.597656 7.859375 -1.328125 C 7.972656 -1.066406 8.15625 -0.890625 8.40625 -0.796875 C 8.664062 -0.710938 9.050781 -0.671875 9.5625 -0.671875 L 10.828125 -0.671875 C 12.210938 -0.671875 13.300781 -1.070312 14.09375 -1.875 C 14.894531 -2.6875 15.453125 -4.039062 15.765625 -5.9375 L 16.4375 -5.9375 C 16.375 -5.382812 16.34375 -4.679688 16.34375 -3.828125 Z M 16.34375 -3.828125 "/></g></g></g><g fill="#000000" fill-opacity="1"><g transform="translate(153.479115, 297.612882)"><g><path d="M 8.5 -18.296875 C 9.394531 -18.296875 10.160156 -18.195312 10.796875 -18 C 11.441406 -17.800781 12.046875 -17.535156 12.609375 -17.203125 C 12.828125 -17.085938 13.019531 -16.988281 13.1875 -16.90625 C 13.351562 -16.832031 13.492188 -16.796875 13.609375 -16.796875 C 13.785156 -16.796875 13.921875 -16.894531 14.015625 -17.09375 C 14.117188 -17.300781 14.203125 -17.628906 14.265625 -18.078125 L 14.9375 -18.078125 C 14.84375 -16.910156 14.796875 -14.875 14.796875 -11.96875 L 14.109375 -11.96875 C 13.898438 -13.726562 13.332031 -15.113281 12.40625 -16.125 C 11.488281 -17.132812 10.285156 -17.640625 8.796875 -17.640625 C 7.816406 -17.640625 7.023438 -17.421875 6.421875 -16.984375 C 5.828125 -16.554688 5.53125 -16.003906 5.53125 -15.328125 C 5.53125 -14.796875 5.691406 -14.304688 6.015625 -13.859375 C 6.335938 -13.421875 6.765625 -13.015625 7.296875 -12.640625 C 7.828125 -12.273438 8.597656 -11.785156 9.609375 -11.171875 L 10.265625 -10.796875 C 11.441406 -10.128906 12.398438 -9.523438 13.140625 -8.984375 C 13.890625 -8.441406 14.507812 -7.800781 15 -7.0625 C 15.488281 -6.332031 15.734375 -5.507812 15.734375 -4.59375 C 15.734375 -2.976562 15.066406 -1.738281 13.734375 -0.875 C 12.398438 -0.0195312 10.644531 0.40625 8.46875 0.40625 C 7.53125 0.40625 6.71875 0.300781 6.03125 0.09375 C 5.34375 -0.101562 4.644531 -0.378906 3.9375 -0.734375 C 3.445312 -0.972656 3.101562 -1.09375 2.90625 -1.09375 C 2.726562 -1.09375 2.59375 -0.988281 2.5 -0.78125 C 2.40625 -0.570312 2.328125 -0.242188 2.265625 0.203125 L 1.59375 0.203125 C 1.664062 -0.890625 1.703125 -3.28125 1.703125 -6.96875 L 2.375 -6.96875 C 2.519531 -4.894531 3.085938 -3.257812 4.078125 -2.0625 C 5.066406 -0.863281 6.460938 -0.265625 8.265625 -0.265625 C 9.148438 -0.265625 9.914062 -0.488281 10.5625 -0.9375 C 11.207031 -1.394531 11.53125 -2.0625 11.53125 -2.9375 C 11.53125 -3.71875 11.222656 -4.394531 10.609375 -4.96875 C 10.003906 -5.539062 8.96875 -6.253906 7.5 -7.109375 C 5.632812 -8.171875 4.207031 -9.179688 3.21875 -10.140625 C 2.226562 -11.109375 1.734375 -12.238281 1.734375 -13.53125 C 1.734375 -15.0625 2.363281 -16.238281 3.625 -17.0625 C 4.894531 -17.882812 6.519531 -18.296875 8.5 -18.296875 Z M 8.5 -18.296875 "/></g></g></g><g fill="#000000" fill-opacity="1"><g transform="translate(170.472306, 297.612882)"><g><path d="M 9.90625 -17.296875 C 9.238281 -17.253906 8.757812 -17.171875 8.46875 -17.046875 C 8.175781 -16.929688 7.972656 -16.707031 7.859375 -16.375 C 7.753906 -16.039062 7.703125 -15.503906 7.703125 -14.765625 L 7.703125 -3.109375 C 7.703125 -2.367188 7.753906 -1.832031 7.859375 -1.5 C 7.972656 -1.164062 8.175781 -0.9375 8.46875 -0.8125 C 8.757812 -0.695312 9.238281 -0.625 9.90625 -0.59375 L 9.90625 0 C 8.90625 -0.0625 7.457031 -0.09375 5.5625 -0.09375 C 3.5 -0.09375 1.976562 -0.0625 1 0 L 1 -0.59375 C 1.664062 -0.625 2.144531 -0.695312 2.4375 -0.8125 C 2.726562 -0.9375 2.925781 -1.164062 3.03125 -1.5 C 3.144531 -1.832031 3.203125 -2.367188 3.203125 -3.109375 L 3.203125 -14.765625 C 3.203125 -15.503906 3.144531 -16.039062 3.03125 -16.375 C 2.925781 -16.707031 2.722656 -16.929688 2.421875 -17.046875 C 2.117188 -17.171875 1.644531 -17.253906 1 -17.296875 L 1 -17.875 C 1.957031 -17.820312 3.476562 -17.796875 5.5625 -17.796875 C 7.457031 -17.796875 8.90625 -17.820312 9.90625 -17.875 Z M 9.90625 -17.296875 "/></g></g></g><g fill="#000000" fill-opacity="1"><g transform="translate(181.379699, 297.612882)"><g><path d="M 18.265625 -17.875 C 18.128906 -16.382812 18.0625 -15.050781 18.0625 -13.875 C 18.0625 -12.78125 18.085938 -11.921875 18.140625 -11.296875 L 17.46875 -11.296875 C 17.195312 -12.785156 16.867188 -13.953125 16.484375 -14.796875 C 16.097656 -15.640625 15.601562 -16.25 15 -16.625 C 14.40625 -17.007812 13.640625 -17.203125 12.703125 -17.203125 L 11.796875 -17.203125 L 11.796875 -3.40625 C 11.796875 -2.582031 11.875 -1.984375 12.03125 -1.609375 C 12.1875 -1.242188 12.457031 -0.988281 12.84375 -0.84375 C 13.238281 -0.707031 13.878906 -0.625 14.765625 -0.59375 L 14.765625 0 C 13.703125 -0.0625 11.9375 -0.09375 9.46875 -0.09375 C 6.976562 -0.09375 5.265625 -0.0625 4.328125 0 L 4.328125 -0.59375 C 5.203125 -0.625 5.835938 -0.707031 6.234375 -0.84375 C 6.628906 -0.988281 6.90625 -1.242188 7.0625 -1.609375 C 7.21875 -1.984375 7.296875 -2.582031 7.296875 -3.40625 L 7.296875 -17.203125 L 6.375 -17.203125 C 5.4375 -17.203125 4.664062 -17.007812 4.0625 -16.625 C 3.46875 -16.25 2.976562 -15.640625 2.59375 -14.796875 C 2.21875 -13.953125 1.894531 -12.785156 1.625 -11.296875 L 0.9375 -11.296875 C 1 -11.921875 1.03125 -12.78125 1.03125 -13.875 C 1.03125 -15.050781 0.960938 -16.382812 0.828125 -17.875 C 2.523438 -17.820312 5.40625 -17.796875 9.46875 -17.796875 C 13.601562 -17.796875 16.535156 -17.820312 18.265625 -17.875 Z M 18.265625 -17.875 "/></g></g></g><g fill="#000000" fill-opacity="1"><g transform="translate(200.460278, 297.612882)"><g><path d="M 16.34375 -3.828125 C 16.34375 -2.703125 16.414062 -1.425781 16.5625 0 C 15.28125 -0.0625 13.128906 -0.09375 10.109375 -0.09375 C 6.078125 -0.09375 3.039062 -0.0625 1 0 L 1 -0.59375 C 1.664062 -0.625 2.144531 -0.695312 2.4375 -0.8125 C 2.726562 -0.9375 2.925781 -1.164062 3.03125 -1.5 C 3.144531 -1.832031 3.203125 -2.367188 3.203125 -3.109375 L 3.203125 -14.765625 C 3.203125 -15.503906 3.144531 -16.039062 3.03125 -16.375 C 2.925781 -16.707031 2.722656 -16.929688 2.421875 -17.046875 C 2.117188 -17.171875 1.644531 -17.253906 1 -17.296875 L 1 -17.875 C 3.039062 -17.820312 6.078125 -17.796875 10.109375 -17.796875 C 12.859375 -17.796875 14.8125 -17.820312 15.96875 -17.875 C 15.832031 -16.5625 15.765625 -15.382812 15.765625 -14.34375 C 15.765625 -13.582031 15.789062 -12.976562 15.84375 -12.53125 L 15.171875 -12.53125 C 14.878906 -14.21875 14.367188 -15.414062 13.640625 -16.125 C 12.921875 -16.84375 11.921875 -17.203125 10.640625 -17.203125 L 9.5625 -17.203125 C 9.050781 -17.203125 8.664062 -17.15625 8.40625 -17.0625 C 8.15625 -16.976562 7.972656 -16.800781 7.859375 -16.53125 C 7.753906 -16.269531 7.703125 -15.859375 7.703125 -15.296875 L 7.703125 -9.296875 L 9.09375 -9.296875 C 9.988281 -9.296875 10.664062 -9.613281 11.125 -10.25 C 11.59375 -10.882812 11.90625 -11.625 12.0625 -12.46875 L 12.734375 -12.46875 C 12.671875 -11.800781 12.640625 -11.035156 12.640625 -10.171875 L 12.640625 -9 C 12.640625 -8.113281 12.703125 -6.957031 12.828125 -5.53125 L 12.140625 -5.53125 C 12.003906 -6.445312 11.695312 -7.203125 11.21875 -7.796875 C 10.738281 -8.398438 10.03125 -8.703125 9.09375 -8.703125 L 7.703125 -8.703125 L 7.703125 -2.59375 C 7.703125 -2.019531 7.753906 -1.597656 7.859375 -1.328125 C 7.972656 -1.066406 8.15625 -0.890625 8.40625 -0.796875 C 8.664062 -0.710938 9.050781 -0.671875 9.5625 -0.671875 L 10.828125 -0.671875 C 12.210938 -0.671875 13.300781 -1.070312 14.09375 -1.875 C 14.894531 -2.6875 15.453125 -4.039062 15.765625 -5.9375 L 16.4375 -5.9375 C 16.375 -5.382812 16.34375 -4.679688 16.34375 -3.828125 Z M 16.34375 -3.828125 "/></g></g></g><g fill="#000000" fill-opacity="1"><g transform="translate(218.364858, 297.612882)"><g><path d="M 3.96875 -4.109375 C 4.726562 -4.109375 5.332031 -3.90625 5.78125 -3.5 C 6.238281 -3.101562 6.46875 -2.554688 6.46875 -1.859375 C 6.46875 -1.148438 6.238281 -0.59375 5.78125 -0.1875 C 5.332031 0.207031 4.726562 0.40625 3.96875 0.40625 C 3.207031 0.40625 2.597656 0.207031 2.140625 -0.1875 C 1.691406 -0.59375 1.46875 -1.148438 1.46875 -1.859375 C 1.46875 -2.554688 1.691406 -3.101562 2.140625 -3.5 C 2.597656 -3.90625 3.207031 -4.109375 3.96875 -4.109375 Z M 3.96875 -4.109375 "/></g></g></g><g fill="#000000" fill-opacity="1"><g transform="translate(226.302857, 297.612882)"><g><path d="M 10.671875 -18.296875 C 11.804688 -18.296875 12.726562 -18.132812 13.4375 -17.8125 C 14.144531 -17.488281 14.867188 -17.007812 15.609375 -16.375 C 15.828125 -16.195312 16.015625 -16.109375 16.171875 -16.109375 C 16.566406 -16.109375 16.820312 -16.695312 16.9375 -17.875 L 17.609375 -17.875 C 17.535156 -16.695312 17.5 -14.640625 17.5 -11.703125 L 16.828125 -11.703125 C 16.628906 -12.765625 16.429688 -13.535156 16.234375 -14.015625 C 16.035156 -14.492188 15.738281 -14.976562 15.34375 -15.46875 C 14.800781 -16.113281 14.179688 -16.617188 13.484375 -16.984375 C 12.785156 -17.347656 12.066406 -17.53125 11.328125 -17.53125 C 10.242188 -17.53125 9.300781 -17.179688 8.5 -16.484375 C 7.695312 -15.785156 7.070312 -14.789062 6.625 -13.5 C 6.1875 -12.207031 5.96875 -10.664062 5.96875 -8.875 C 5.96875 -7.070312 6.207031 -5.53125 6.6875 -4.25 C 7.164062 -2.96875 7.828125 -2 8.671875 -1.34375 C 9.515625 -0.6875 10.46875 -0.359375 11.53125 -0.359375 C 12.289062 -0.359375 13.035156 -0.535156 13.765625 -0.890625 C 14.503906 -1.253906 15.140625 -1.757812 15.671875 -2.40625 C 16.066406 -2.894531 16.351562 -3.425781 16.53125 -4 C 16.707031 -4.570312 16.875 -5.394531 17.03125 -6.46875 L 17.703125 -6.46875 C 17.703125 -3.394531 17.738281 -1.238281 17.8125 0 L 17.140625 0 C 17.085938 -0.601562 17 -1.046875 16.875 -1.328125 C 16.757812 -1.617188 16.601562 -1.765625 16.40625 -1.765625 C 16.25 -1.765625 16.054688 -1.675781 15.828125 -1.5 C 15.097656 -0.894531 14.335938 -0.425781 13.546875 -0.09375 C 12.765625 0.238281 11.828125 0.40625 10.734375 0.40625 C 8.867188 0.40625 7.21875 0.046875 5.78125 -0.671875 C 4.351562 -1.398438 3.242188 -2.445312 2.453125 -3.8125 C 1.660156 -5.1875 1.265625 -6.835938 1.265625 -8.765625 C 1.265625 -10.628906 1.675781 -12.285156 2.5 -13.734375 C 3.320312 -15.179688 4.441406 -16.300781 5.859375 -17.09375 C 7.285156 -17.894531 8.890625 -18.296875 10.671875 -18.296875 Z M 10.671875 -18.296875 "/></g></g></g><g fill="#000000" fill-opacity="1"><g transform="translate(245.618636, 297.612882)"><g><path d="M 11.171875 -18.296875 C 13.148438 -18.296875 14.882812 -17.9375 16.375 -17.21875 C 17.863281 -16.5 19.019531 -15.445312 19.84375 -14.0625 C 20.664062 -12.6875 21.078125 -11.035156 21.078125 -9.109375 C 21.078125 -7.234375 20.65625 -5.570312 19.8125 -4.125 C 18.976562 -2.6875 17.804688 -1.570312 16.296875 -0.78125 C 14.785156 0.0078125 13.066406 0.40625 11.140625 0.40625 C 9.160156 0.40625 7.425781 0.0507812 5.9375 -0.65625 C 4.445312 -1.375 3.289062 -2.421875 2.46875 -3.796875 C 1.644531 -5.179688 1.234375 -6.835938 1.234375 -8.765625 C 1.234375 -10.648438 1.65625 -12.3125 2.5 -13.75 C 3.34375 -15.1875 4.519531 -16.300781 6.03125 -17.09375 C 7.539062 -17.894531 9.253906 -18.296875 11.171875 -18.296875 Z M 11.0625 -17.765625 C 10.039062 -17.765625 9.140625 -17.382812 8.359375 -16.625 C 7.585938 -15.875 6.988281 -14.828125 6.5625 -13.484375 C 6.144531 -12.140625 5.9375 -10.601562 5.9375 -8.875 C 5.9375 -7.132812 6.171875 -5.597656 6.640625 -4.265625 C 7.117188 -2.929688 7.765625 -1.90625 8.578125 -1.1875 C 9.390625 -0.476562 10.285156 -0.125 11.265625 -0.125 C 12.285156 -0.125 13.179688 -0.5 13.953125 -1.25 C 14.722656 -2 15.316406 -3.046875 15.734375 -4.390625 C 16.160156 -5.734375 16.375 -7.269531 16.375 -9 C 16.375 -10.738281 16.140625 -12.273438 15.671875 -13.609375 C 15.203125 -14.941406 14.5625 -15.96875 13.75 -16.6875 C 12.9375 -17.40625 12.039062 -17.765625 11.0625 -17.765625 Z M 11.0625 -17.765625 "/></g></g></g><g fill="#000000" fill-opacity="1"><g transform="translate(267.933219, 297.612882)"><g><path d="M 25.03125 -17.296875 C 24.320312 -17.253906 23.804688 -17.171875 23.484375 -17.046875 C 23.160156 -16.929688 22.9375 -16.707031 22.8125 -16.375 C 22.695312 -16.039062 22.640625 -15.503906 22.640625 -14.765625 L 22.640625 -3.109375 C 22.640625 -2.367188 22.695312 -1.832031 22.8125 -1.5 C 22.9375 -1.164062 23.160156 -0.9375 23.484375 -0.8125 C 23.804688 -0.695312 24.320312 -0.625 25.03125 -0.59375 L 25.03125 0 C 23.96875 -0.0625 22.484375 -0.09375 20.578125 -0.09375 C 18.304688 -0.09375 16.640625 -0.0625 15.578125 0 L 15.578125 -0.59375 C 16.285156 -0.625 16.800781 -0.695312 17.125 -0.8125 C 17.445312 -0.9375 17.664062 -1.164062 17.78125 -1.5 C 17.90625 -1.832031 17.96875 -2.367188 17.96875 -3.109375 L 17.96875 -16.03125 L 11.234375 0.140625 L 10.765625 0.140625 L 3.9375 -16 L 3.9375 -3.9375 C 3.9375 -3.070312 4.015625 -2.421875 4.171875 -1.984375 C 4.328125 -1.546875 4.613281 -1.226562 5.03125 -1.03125 C 5.457031 -0.832031 6.101562 -0.6875 6.96875 -0.59375 L 6.96875 0 C 6.125 -0.0625 5.003906 -0.09375 3.609375 -0.09375 C 2.535156 -0.09375 1.6875 -0.0625 1.0625 0 L 1.0625 -0.59375 C 1.707031 -0.6875 2.179688 -0.832031 2.484375 -1.03125 C 2.785156 -1.226562 2.988281 -1.539062 3.09375 -1.96875 C 3.207031 -2.394531 3.265625 -3.050781 3.265625 -3.9375 L 3.265625 -14.765625 C 3.265625 -15.503906 3.203125 -16.039062 3.078125 -16.375 C 2.960938 -16.707031 2.742188 -16.929688 2.421875 -17.046875 C 2.097656 -17.171875 1.582031 -17.253906 0.875 -17.296875 L 0.875 -17.875 C 1.894531 -17.820312 3.457031 -17.796875 5.5625 -17.796875 C 6.582031 -17.796875 7.453125 -17.820312 8.171875 -17.875 L 13.0625 -6.140625 L 17.96875 -17.796875 L 20.578125 -17.796875 C 22.484375 -17.796875 23.96875 -17.820312 25.03125 -17.875 Z M 25.03125 -17.296875 "/></g></g></g></svg>